<svg width="38" height="38" viewBox="0 0 38 38" fill="none" xmlns="http://www.w3.org/2000/svg">
<path d="M36.8125 32.064H20.1875C19.532 32.064 19 31.532 19 30.8765V7.12646C19 6.47096 19.532 5.93896 20.1875 5.93896H36.8125C37.468 5.93896 38 6.47096 38 7.12646V30.8765C38 31.532 37.468 32.064 36.8125 32.064Z" fill="#DEE7ED"/>
<path d="M24.9375 13.064H20.1875C19.532 13.064 19 12.532 19 11.8765C19 11.221 19.532 10.689 20.1875 10.689H24.9375C25.593 10.689 26.125 11.221 26.125 11.8765C26.125 12.532 25.593 13.064 24.9375 13.064ZM24.9375 17.814H20.1875C19.532 17.814 19 17.282 19 16.6265C19 15.971 19.532 15.439 20.1875 15.439H24.9375C25.593 15.439 26.125 15.971 26.125 16.6265C26.125 17.282 25.593 17.814 24.9375 17.814ZM24.9375 22.564H20.1875C19.532 22.564 19 22.032 19 21.3765C19 20.721 19.532 20.189 20.1875 20.189H24.9375C25.593 20.189 26.125 20.721 26.125 21.3765C26.125 22.032 25.593 22.564 24.9375 22.564ZM24.9375 27.314H20.1875C19.532 27.314 19 26.782 19 26.1265C19 25.471 19.532 24.939 20.1875 24.939H24.9375C25.593 24.939 26.125 25.471 26.125 26.1265C26.125 26.782 25.593 27.314 24.9375 27.314ZM32.0625 13.064H29.6875C29.032 13.064 28.5 12.532 28.5 11.8765C28.5 11.221 29.032 10.689 29.6875 10.689H32.0625C32.718 10.689 33.25 11.221 33.25 11.8765C33.25 12.532 32.718 13.064 32.0625 13.064ZM32.0625 17.814H29.6875C29.032 17.814 28.5 17.282 28.5 16.6265C28.5 15.971 29.032 15.439 29.6875 15.439H32.0625C32.718 15.439 33.25 15.971 33.25 16.6265C33.25 17.282 32.718 17.814 32.0625 17.814ZM32.0625 22.564H29.6875C29.032 22.564 28.5 22.032 28.5 21.3765C28.5 20.721 29.032 20.189 29.6875 20.189H32.0625C32.718 20.189 33.25 20.721 33.25 21.3765C33.25 22.032 32.718 22.564 32.0625 22.564ZM32.0625 27.314H29.6875C29.032 27.314 28.5 26.782 28.5 26.1265C28.5 25.471 29.032 24.939 29.6875 24.939H32.0625C32.718 24.939 33.25 25.471 33.25 26.1265C33.25 26.782 32.718 27.314 32.0625 27.314Z" fill="#388E3C"/>
<path d="M20.9451 1.46223C20.6744 1.2366 20.311 1.13923 19.969 1.21048L0.969001 4.77298C0.69659 4.82331 0.450447 4.96756 0.2734 5.18062C0.096353 5.39369 -0.000390855 5.66208 1.18685e-06 5.9391V32.0641C1.18685e-06 32.6341 0.406126 33.1257 0.969001 33.2302L19.969 36.7927C20.0403 36.807 20.1139 36.8141 20.1875 36.8141C20.463 36.8141 20.7314 36.7191 20.9451 36.541C21.0796 36.4295 21.1878 36.2898 21.2621 36.1318C21.3364 35.9737 21.375 35.8012 21.375 35.6266V2.3766C21.375 2.02273 21.2183 1.68785 20.9451 1.46223Z" fill="#2E7D32"/>
<path d="M16.3317 22.9704L12.5768 18.6788L16.3745 13.7958C16.7782 13.278 16.6832 12.5323 16.1678 12.1285C15.6525 11.7248 14.9067 11.8198 14.5006 12.3352L10.9832 16.8572L8.01922 13.4704C7.5846 12.9717 6.8341 12.9265 6.34485 13.3588C5.85085 13.791 5.80097 14.5415 6.23322 15.0332L9.49885 18.7667L6.1881 23.0227C5.78435 23.5404 5.87935 24.2862 6.39472 24.6899C6.60421 24.8517 6.8615 24.9395 7.12622 24.9393C7.4801 24.9393 7.82922 24.7825 8.06435 24.4809L11.0925 20.5859L14.5457 24.5308C14.6564 24.6591 14.7935 24.762 14.9476 24.8325C15.1017 24.903 15.2693 24.9394 15.4387 24.9393C15.7166 24.9393 15.9945 24.8419 16.2201 24.6448C16.7141 24.2125 16.764 23.462 16.3317 22.9704Z" fill="#FAFAFA"/>
</svg>
