<svg width="512" height="512" viewBox="0 0 512 512" fill="none" xmlns="http://www.w3.org/2000/svg">
<path d="M256.001 134.524L73.3985 285.061C73.3985 285.273 73.3451 285.586 73.2383 286.012C73.1337 286.434 73.0781 286.741 73.0781 286.959V439.393C73.0781 444.897 75.0903 449.667 79.1136 453.683C83.1358 457.702 87.8987 459.724 93.4036 459.724H215.348V337.774H296.655V459.729H418.598C424.102 459.729 428.871 457.711 432.888 453.683C436.911 449.671 438.93 444.898 438.93 439.393V286.959C438.93 286.114 438.814 285.476 438.61 285.061L256.001 134.524Z" fill="white"/>
<path d="M508.468 250.761L438.923 192.962V63.3911C438.923 60.429 437.971 57.993 436.06 56.0865C434.165 54.1822 431.729 53.23 428.76 53.23H367.787C364.821 53.23 362.387 54.1822 360.479 56.0865C358.576 57.993 357.625 60.4301 357.625 63.3911V125.317L280.138 60.5302C273.371 55.0253 265.324 52.2734 256.007 52.2734C246.692 52.2734 238.646 55.0253 231.872 60.5302L3.52891 250.761C1.41216 252.452 0.252005 254.727 0.0362144 257.586C-0.178464 260.442 0.561231 262.937 2.25752 265.053L21.9468 288.554C23.643 290.458 25.8632 291.623 28.6162 292.049C31.1579 292.263 33.6996 291.52 36.2412 289.827L256.001 106.58L475.762 289.826C477.46 291.303 479.679 292.04 482.432 292.04H483.386C486.135 291.622 488.35 290.45 490.056 288.55L509.747 265.052C511.44 262.932 512.182 260.441 511.962 257.582C511.745 254.731 510.58 252.455 508.468 250.761Z" fill="white"/>
</svg>
