<svg width="38" height="38" viewBox="0 0 38 38" fill="none" xmlns="http://www.w3.org/2000/svg">
<g clip-path="url(#clip0_9062_754)">
<path d="M25.0964 0H5.40291C4.85462 0 4.41016 0.444464 4.41016 1.30693V37.3214C4.41016 37.5555 4.85462 38 5.40291 38H32.596C33.1443 38 33.5887 37.5555 33.5887 37.3214V8.8065C33.5887 8.33421 33.5256 8.18221 33.4143 8.07025L25.5185 0.174393C25.4063 0.062886 25.2546 0.000207506 25.0964 0Z" fill="#EDEDF3"/>
<path d="M25.4492 0.102539V8.14293H33.4896L25.4492 0.102539Z" fill="#CAD3D9"/>
<path d="M13.2411 22.6136C13.0049 22.6136 12.7783 22.5369 12.5849 22.3924C11.8785 21.8624 11.7835 21.2728 11.8283 20.871C11.9518 19.7663 13.3178 18.61 15.8896 17.432C16.9101 15.1955 17.8812 12.4398 18.46 10.1374C17.7828 8.66355 17.1246 6.75133 17.6043 5.62966C17.7726 5.23676 17.9823 4.93548 18.3738 4.80519C18.5989 4.74221 18.83 4.70309 19.0632 4.68848C19.4052 4.68848 19.7058 5.12887 19.9189 5.4003C20.1191 5.65544 20.5731 6.19626 19.6658 10.0159C20.5805 11.9051 21.8766 13.8295 23.1184 15.1473C24.008 14.9865 24.7734 14.9044 25.397 14.9044C26.4597 14.9044 27.1036 15.1521 27.3662 15.6623C27.5834 16.0844 27.4945 16.5777 27.1016 17.1281C26.7236 17.6567 26.2025 17.9362 25.5952 17.9362C24.77 17.9362 23.8092 17.4151 22.7377 16.3857C20.8126 16.7881 18.5645 17.506 16.7473 18.3006C16.18 19.5044 15.6364 20.4741 15.1302 21.1852C14.4347 22.159 13.8348 22.6136 13.2411 22.6136ZM15.0474 19.1353C13.5973 19.9502 13.0063 20.62 12.9635 20.9973C12.9568 21.0597 12.9384 21.2239 13.256 21.4668C13.3571 21.4349 13.9475 21.1656 15.0474 19.1353ZM24.3011 16.121C24.8542 16.5465 24.9892 16.7616 25.3509 16.7616C25.5097 16.7616 25.9623 16.7548 26.1719 16.4624C26.2731 16.3206 26.3124 16.2296 26.328 16.1808C26.2446 16.1367 26.1339 16.0471 25.5307 16.0471C25.188 16.0478 24.7571 16.0627 24.3011 16.121ZM19.2322 11.6547C18.7242 13.3983 18.1184 15.1119 17.4177 16.7874C18.8542 16.2309 20.3269 15.7729 21.8257 15.4167C20.9096 14.3527 19.9942 13.024 19.2322 11.6547ZM18.8203 5.91262C18.7538 5.93501 17.9178 7.10487 18.8854 8.09491C19.5294 6.65973 18.8495 5.90312 18.8203 5.91262ZM32.596 38.0009H5.40291C5.13961 38.0009 4.8871 37.8963 4.70093 37.7101C4.51475 37.524 4.41016 37.2715 4.41016 37.0082V26.4652H33.5887V37.0082C33.5887 37.5564 33.1443 38.0009 32.596 38.0009Z" fill="#A6050B"/>
<path d="M11.7971 35.9633H10.6836V29.126H12.6501C12.9405 29.126 13.2282 29.1721 13.5126 29.2651C13.7969 29.358 14.052 29.4972 14.278 29.6824C14.504 29.8677 14.6865 30.0923 14.8256 30.3549C14.9647 30.6175 15.0346 30.9127 15.0346 31.2411C15.0346 31.5878 14.9756 31.9013 14.8582 32.1829C14.7488 32.453 14.5807 32.6955 14.3662 32.8927C14.1558 33.0841 13.9021 33.2327 13.6055 33.3379C13.309 33.443 12.9806 33.4953 12.6223 33.4953H11.7965L11.7971 35.9633ZM11.7971 29.9701V32.679H12.8177C12.9534 32.679 13.0878 32.6559 13.2215 32.6091C13.3545 32.5629 13.4766 32.4869 13.5879 32.3818C13.6992 32.2766 13.7887 32.13 13.8566 31.9414C13.9245 31.7527 13.9584 31.5193 13.9584 31.2411C13.9584 31.1298 13.9428 31.0009 13.9122 30.8563C13.8786 30.7055 13.8139 30.5634 13.7222 30.439C13.6158 30.2975 13.4775 30.1831 13.3185 30.1052C13.1455 30.0156 12.9161 29.9708 12.6318 29.9708L11.7971 29.9701ZM21.8631 32.3546C21.8631 32.9172 21.8027 33.3983 21.6819 33.7973C21.5611 34.1963 21.4084 34.5301 21.2225 34.7995C21.0366 35.0689 20.8282 35.2806 20.5962 35.4353C20.3641 35.59 20.1402 35.7054 19.9237 35.7834C19.7319 35.8547 19.5327 35.9045 19.33 35.932C19.1508 35.9524 19.0178 35.9633 18.931 35.9633H16.3429V29.126H18.4023C18.9778 29.126 19.4833 29.2176 19.919 29.3994C20.3546 29.5813 20.717 29.8249 21.0047 30.1275C21.2924 30.4302 21.5068 30.7756 21.6493 31.1617C21.7918 31.5485 21.8631 31.9461 21.8631 32.3546ZM18.5605 35.1469C19.315 35.1469 19.8592 34.906 20.1931 34.4236C20.527 33.9411 20.6939 33.2422 20.6939 32.3268C20.6939 32.0425 20.66 31.7609 20.5921 31.4827C20.5236 31.2044 20.3926 30.9527 20.1978 30.7267C20.0031 30.5008 19.7385 30.3182 19.4046 30.1791C19.0707 30.04 18.6378 29.9701 18.1058 29.9701H17.4564V35.1469H18.5605ZM24.6092 29.9701V32.1225H27.4667V32.8832H24.6092V35.9633H23.4774V29.126H27.7537V29.9701H24.6092Z" fill="white"/>
</g>
<defs>
<clipPath id="clip0_9062_754">
<rect width="38" height="38" fill="white"/>
</clipPath>
</defs>
</svg>
